<svg xmlns="http://www.w3.org/2000/svg" xmlns:xlink="http://www.w3.org/1999/xlink" preserveAspectRatio="xMidYMid" width="678" height="239" viewBox="0 0 678 239">
  <defs>
    <style>

      .cls-3 {
        font-size: 30.48px;
      }

      .cls-4 {
        fill: #c0c0c0;
        font-size: 30.48px;
        font-family: "Helvetica";
      }

      .cls-11 {
        fill: #636363;
      }

      .cls-15 {
        fill: #323232;
        stroke: #8c8c8c;
        stroke-width: 13px;
      }

      .cls-17 {
        fill: #b45050;
        stroke: #8c8c8c;
        stroke-width: 13px;
      }
    </style>
  </defs>
  <g id="acc-and-speedsvg">
    <text class="cls-3" x="631px" y="169px"><tspan class="cls-4">v</tspan></text>
    <text class="cls-3" x="55px" y="141px"><tspan class="cls-4">v</tspan></text>
    <text class="cls-3" x="518px" y="148px"><tspan class="cls-4">a</tspan></text>
    <text class="cls-3" x="207px" y="91px"><tspan class="cls-4">a</tspan></text>
    <path d="M601.428,185.916 C601.428,185.916 600.115,178.836 600.115,178.836 C600.115,178.836 662.094,169.705 662.094,169.705 C662.094,169.705 660.781,162.626 660.781,162.626 C660.781,162.626 676.909,170.620 676.909,170.620 C676.909,170.620 664.719,183.864 664.719,183.864 C664.719,183.864 663.406,176.785 663.406,176.785 C663.406,176.785 601.428,185.916 601.428,185.916 Z" id="path-1" class="cls-11" fill-rule="evenodd"/>
    <path d="M121.722,118.291 C121.722,118.291 125.686,124.301 125.686,124.301 C125.686,124.301 13.998,183.638 13.998,183.638 C13.998,183.638 17.963,189.649 17.963,189.649 C17.963,189.649 -0.004,188.563 -0.004,188.563 C-0.004,188.563 6.069,171.618 6.069,171.618 C6.069,171.618 10.034,177.628 10.034,177.628 C10.034,177.628 121.722,118.291 121.722,118.291 Z" id="path-2" class="cls-11" fill-rule="evenodd"/>
    <path d="M544.590,166.896 C544.590,166.896 540.703,173.005 540.703,173.005 C540.703,173.005 488.867,137.220 488.867,137.220 C488.867,137.220 484.980,143.330 484.980,143.330 C484.980,143.330 478.599,126.387 478.599,126.387 C478.599,126.387 496.640,125.001 496.640,125.001 C496.640,125.001 492.753,131.110 492.753,131.110 C492.753,131.110 544.590,166.896 544.590,166.896 Z" id="path-3" class="cls-11" fill-rule="evenodd"/>
    <path d="M187.711,105.975 C187.711,105.975 186.864,98.784 186.864,98.784 C186.864,98.784 249.653,93.772 249.653,93.772 C249.653,93.772 248.805,86.581 248.805,86.581 C248.805,86.581 264.456,95.682 264.456,95.682 C264.456,95.682 251.348,108.155 251.348,108.155 C251.348,108.155 250.500,100.963 250.500,100.963 C250.500,100.963 187.711,105.975 187.711,105.975 Z" id="path-4" class="cls-11" fill-rule="evenodd"/>
    <circle id="circle-1" class="cls-15" cx="151" cy="112" r="40"/>
    <circle id="circle-2" class="cls-15" cx="571" cy="192" r="40"/>
    <circle id="circle-3" class="cls-17" cx="379" cy="87" r="81"/>
  </g>
</svg>
